# xmcd
#
# Track frame offsets: 
#        150
#        12787
#        24405
#        38092
#        50940
#        60872
#        73585
#        85382
#        96692
#        108182
#
# Disc length: 1576 seconds
#
# Revision: 4
# Processed by: cddbd v1.5.2PL0 Copyright (c) Steve Scherf et al.
# Submitted via: ExactAudioCopyFreeDBPlugin 1.0
#
DISCID=7e06260a
DTITLE=Various Artist - Billboard Greatest Country Christmas Hits
DYEAR=1900
DGENRE=Country
TTITLE0=Ernest Tubb - Blue Christmas
TTITLE1=Tex Ritter - Christmas Carols By The Old Corral
TTITLE2=Eddy Arnold - Will Santy Come To Shanty Town
TTITLE3=Jimmy Dean - Little Sandy Sleighfoot
TTITLE4=Bobby Helms - Jingle Bell Rock
TTITLE5=Ernest Tubb - White Christmas
TTITLE6=Johnny Cash - The Little Drummer Boy
TTITLE7=Eddy Arnold - CHRISTMAS
TTITLE8=Jimmy Boyd - I Saw Mommy Kissing Santa Claus
TTITLE9=Buck Owens and The Buckaroos - Santa Looked A Lot Like Daddy
EXTD=
EXTT0=
EXTT1=
EXTT2=
EXTT3=
EXTT4=
EXTT5=
EXTT6=
EXTT7=
EXTT8=
EXTT9=
PLAYORDER=
